<svg xmlns="http://www.w3.org/2000/svg" width="256" height="256" viewBox="0 0 256 256">
  <title>OpenTT3D — an isometric locomotive on a landscape tile</title>
  <metadata>Hand-authored OpenTT3D artwork. SPDX-License-Identifier: GPL-2.0-only.</metadata>
  <rect x="8" y="8" width="240" height="240" rx="42" fill="#142c40"/>
  <polygon points="24,108 128,48 232,108 128,168" fill="#80ad54"/>
  <polygon points="24,108 128,168 128,190 24,130" fill="#456e3b"/>
  <polygon points="128,168 232,108 232,130 128,190" fill="#2d5137"/>
  <polygon points="50,95 61,89 191,164 180,170" fill="#314351"/>
  <polygon points="71,83 82,77 212,152 201,158" fill="#314351"/>
  <polygon points="54,94 58,92 188,167 184,169" fill="#d0d8da"/>
  <polygon points="75,82 79,80 209,155 205,157" fill="#f2f2de"/>
  <polygon points="75,76 108,57 181,99 148,118" fill="#ffc84e"/>
  <polygon points="75,76 148,118 148,144 75,102" fill="#d98c28"/>
  <polygon points="148,118 181,99 181,125 148,144" fill="#a55e20"/>
  <polygon points="73,62 106,43 139,62 106,81" fill="#f7dd84"/>
  <polygon points="73,62 106,81 106,105 73,86" fill="#eeb13a"/>
  <polygon points="106,81 139,62 139,87 106,105" fill="#bd7729"/>
  <polygon points="80,71 100,82 100,94 80,83" fill="#163b53"/>
  <polygon points="83,74 97,82 97,86 83,78" fill="#7cd3de"/>
  <polygon points="112,82 133,70 133,82 112,94" fill="#1e4a61"/>
  <polygon points="116,82 129,75 129,79 116,87" fill="#a2e6e5"/>
  <polygon points="115,98 139,111 139,117 115,104" fill="#f9d56b"/>
  <polygon points="153,122 174,110 174,115 153,127" fill="#f8e8ac"/>
  <polygon points="150,138 181,120 184,127 153,145" fill="#263543"/>
  <polygon points="84,104 92,108 96,117 92,124 84,123 80,115" fill="#182735"/>
  <polygon points="84,109 90,112 92,117 88,120 83,116" fill="#93a1a8"/>
  <polygon points="120,125 128,129 132,138 128,145 120,144 116,136" fill="#182735"/>
  <polygon points="120,130 126,133 128,138 124,141 119,137" fill="#b6c3c5"/>
  <rect x="141" y="169" width="98" height="64" rx="10" fill="#0c202f"/>
  <rect x="147" y="175" width="86" height="52" rx="6" fill="#297eac"/>
  <rect x="157" y="183" width="29" height="6" fill="#fff2c6"/>
  <rect x="180" y="188" width="6" height="29" fill="#fff2c6"/>
  <rect x="163" y="198" width="23" height="6" fill="#fff2c6"/>
  <rect x="157" y="214" width="29" height="6" fill="#fff2c6"/>
  <rect x="195" y="183" width="6" height="37" fill="#fff2c6"/>
  <polygon points="200,183 216,183 223,190 223,213 216,220 200,220 200,214 213,214 217,210 217,193 213,189 200,189" fill="#fff2c6"/>
</svg>
